<svg width="117" height="24" viewBox="0 0 117 24" fill="none" xmlns="http://www.w3.org/2000/svg">
<path d="M32.75 4.59375C33.4609 4.59375 34.1211 4.68359 34.7305 4.86328C35.3477 5.04297 35.8828 5.3125 36.3359 5.67188C36.7969 6.02344 37.1562 6.46484 37.4141 6.99609C37.6797 7.52734 37.8125 8.14844 37.8125 8.85938V16.125C37.8125 16.7344 37.7461 17.2734 37.6133 17.7422C37.4805 18.2031 37.3047 18.6055 37.0859 18.9492C36.875 19.2852 36.6328 19.5742 36.3594 19.8164C36.0859 20.0508 35.8086 20.2422 35.5273 20.3906C34.8555 20.75 34.0938 20.9531 33.2422 21H29.3516C28.9062 21 28.5625 20.9258 28.3203 20.7773C28.0781 20.6211 27.9023 20.418 27.793 20.168C27.6836 19.9102 27.6172 19.6211 27.5938 19.3008C27.5781 18.9805 27.5703 18.6484 27.5703 18.3047V7.26562C27.5703 6.92969 27.5781 6.60156 27.5938 6.28125C27.6172 5.96094 27.6836 5.67578 27.793 5.42578C27.9023 5.17578 28.0781 4.97656 28.3203 4.82812C28.5625 4.67188 28.9062 4.59375 29.3516 4.59375H32.75ZM31.1328 7.33594V18.2109H32.6562C32.9922 18.1953 33.293 18.1172 33.5586 17.9766C33.668 17.9219 33.7773 17.8477 33.8867 17.7539C33.9961 17.6602 34.0938 17.5508 34.1797 17.4258C34.2656 17.293 34.332 17.1367 34.3789 16.957C34.4336 16.7773 34.4609 16.5703 34.4609 16.3359V9.42188C34.4609 9.16406 34.4336 8.9375 34.3789 8.74219C34.332 8.53906 34.2656 8.36328 34.1797 8.21484C34.0938 8.06641 33.9961 7.94141 33.8867 7.83984C33.7773 7.73828 33.668 7.65625 33.5586 7.59375C33.293 7.44531 32.9922 7.35938 32.6562 7.33594H31.1328ZM40.0391 9.23438C40.0391 8.48438 40.1484 7.84766 40.3672 7.32422C40.5859 6.79297 40.8633 6.35156 41.1992 6C41.543 5.64844 41.918 5.375 42.3242 5.17969C42.7383 4.97656 43.1367 4.82422 43.5195 4.72266C43.9102 4.62109 44.2617 4.55859 44.5742 4.53516C44.8867 4.51172 45.1172 4.5 45.2656 4.5H45.6641C45.8125 4.5 46.043 4.51172 46.3555 4.53516C46.668 4.55859 47.0156 4.62109 47.3984 4.72266C47.7812 4.82422 48.1758 4.97656 48.582 5.17969C48.9961 5.375 49.3672 5.64844 49.6953 6C50.0312 6.35156 50.3047 6.79297 50.5156 7.32422C50.7344 7.84766 50.8438 8.48438 50.8438 9.23438V16.2422C50.8438 17.0156 50.7344 17.6719 50.5156 18.2109C50.3047 18.75 50.0312 19.1992 49.6953 19.5586C49.3672 19.918 48.9961 20.2031 48.582 20.4141C48.1758 20.6172 47.7812 20.7695 47.3984 20.8711C47.0156 20.9727 46.668 21.0352 46.3555 21.0586C46.043 21.082 45.8125 21.0938 45.6641 21.0938H45.2656C45.1172 21.0938 44.8867 21.082 44.5742 21.0586C44.2617 21.0352 43.9102 20.9727 43.5195 20.8711C43.1367 20.7695 42.7383 20.6172 42.3242 20.4141C41.918 20.2031 41.543 19.918 41.1992 19.5586C40.8633 19.1992 40.5859 18.75 40.3672 18.2109C40.1484 17.6719 40.0391 17.0156 40.0391 16.2422V9.23438ZM43.9297 16.6875C43.9453 16.9766 44.0117 17.2305 44.1289 17.4492C44.2305 17.6445 44.3828 17.8203 44.5859 17.9766C44.7969 18.1328 45.0938 18.2109 45.4766 18.2109C45.8516 18.2109 46.1406 18.1328 46.3438 17.9766C46.5469 17.8203 46.6992 17.6445 46.8008 17.4492C46.9102 17.2305 46.9766 16.9766 47 16.6875V9.04688C46.9766 8.76562 46.9102 8.51172 46.8008 8.28516C46.6992 8.09766 46.5469 7.92578 46.3438 7.76953C46.1406 7.60547 45.8516 7.52344 45.4766 7.52344C45.0938 7.52344 44.7969 7.60547 44.5859 7.76953C44.3828 7.92578 44.2305 8.09766 44.1289 8.28516C44.0117 8.51172 43.9453 8.76562 43.9297 9.04688V16.6875ZM64.6016 19.9219C64.6016 20.0234 64.5898 20.1406 64.5664 20.2734C64.5508 20.4062 64.5 20.5352 64.4141 20.6602C64.3359 20.7773 64.2188 20.8789 64.0625 20.9648C63.9062 21.0508 63.6953 21.0938 63.4297 21.0938C63.1328 21.0938 62.8984 21.0547 62.7266 20.9766C62.5547 20.8906 62.4219 20.7891 62.3281 20.6719C62.2422 20.5469 62.1836 20.418 62.1523 20.2852C62.1289 20.1523 62.1172 20.0312 62.1172 19.9219V19.2188C61.7422 19.7734 61.2617 20.2266 60.6758 20.5781C60.0977 20.9219 59.3828 21.0938 58.5312 21.0938C58.3828 21.0938 58.1523 21.082 57.8398 21.0586C57.5273 21.0352 57.1758 20.9727 56.7852 20.8711C56.3945 20.7695 55.9922 20.6172 55.5781 20.4141C55.1641 20.2109 54.7852 19.9297 54.4414 19.5703C54.1055 19.2031 53.8281 18.75 53.6094 18.2109C53.3906 17.6641 53.2812 17 53.2812 16.2188V9.65625C53.2812 9.01562 53.3594 8.44922 53.5156 7.95703C53.6719 7.46484 53.875 7.03906 54.125 6.67969C54.3828 6.3125 54.6758 6.00781 55.0039 5.76562C55.332 5.51563 55.668 5.30859 56.0117 5.14453C56.8086 4.76953 57.7188 4.55469 58.7422 4.5C59.6094 4.5 60.3516 4.59766 60.9688 4.79297C61.5859 4.98828 62.1094 5.24219 62.5391 5.55469C62.9688 5.86719 63.3125 6.22266 63.5703 6.62109C63.8281 7.01172 64.0273 7.41016 64.168 7.81641C64.3086 8.22266 64.3984 8.61328 64.4375 8.98828C64.4844 9.36328 64.5078 9.6875 64.5078 9.96094C64.5078 10.0781 64.4961 10.2227 64.4727 10.3945C64.457 10.5586 64.3906 10.7188 64.2734 10.875C64.1562 11.0234 63.9688 11.1523 63.7109 11.2617C63.4609 11.3633 63.1016 11.4141 62.6328 11.4141C62.4688 11.4141 62.2656 11.4062 62.0234 11.3906C61.7891 11.3672 61.5625 11.3164 61.3438 11.2383C61.125 11.1602 60.9375 11.0469 60.7812 10.8984C60.625 10.7422 60.5469 10.5312 60.5469 10.2656C60.5469 9.84375 60.5195 9.46875 60.4648 9.14062C60.418 8.80469 60.3281 8.51953 60.1953 8.28516C60.0625 8.05078 59.8789 7.875 59.6445 7.75781C59.4102 7.63281 59.1094 7.57031 58.7422 7.57031C58.3594 7.57031 58.0625 7.64844 57.8516 7.80469C57.6484 7.96094 57.5 8.13281 57.4062 8.32031C57.2969 8.53906 57.2344 8.78906 57.2188 9.07031V16.5703C57.2188 16.8203 57.2617 17.0547 57.3477 17.2734C57.4414 17.4922 57.5703 17.6836 57.7344 17.8477C57.8984 18.0117 58.0898 18.1406 58.3086 18.2344C58.5352 18.3281 58.7812 18.375 59.0469 18.375C59.3594 18.375 59.6406 18.3086 59.8906 18.1758C60.1484 18.0352 60.3789 17.8516 60.582 17.625C60.7852 17.3906 60.9648 17.1289 61.1211 16.8398C61.2852 16.543 61.4297 16.2344 61.5547 15.9141H60.4297C60.2031 15.8906 60.0039 15.832 59.832 15.7383C59.6758 15.6602 59.5352 15.543 59.4102 15.3867C59.293 15.2305 59.2344 15.0156 59.2344 14.7422C59.2344 14.4453 59.293 14.2188 59.4102 14.0625C59.5352 13.8984 59.6758 13.7773 59.832 13.6992C60.0039 13.6133 60.2031 13.5625 60.4297 13.5469H63.4766C63.5312 13.5469 63.6172 13.5586 63.7344 13.582C63.8594 13.5977 63.9844 13.6523 64.1094 13.7461C64.2422 13.8398 64.3555 13.9805 64.4492 14.168C64.5508 14.3477 64.6016 14.6016 64.6016 14.9297V19.9219ZM66.8047 9.23438C66.8047 8.48438 66.9141 7.84766 67.1328 7.32422C67.3516 6.79297 67.6289 6.35156 67.9648 6C68.3086 5.64844 68.6836 5.375 69.0898 5.17969C69.5039 4.97656 69.9023 4.82422 70.2852 4.72266C70.6758 4.62109 71.0273 4.55859 71.3398 4.53516C71.6523 4.51172 71.8828 4.5 72.0312 4.5H72.4297C72.5781 4.5 72.8086 4.51172 73.1211 4.53516C73.4336 4.55859 73.7812 4.62109 74.1641 4.72266C74.5469 4.82422 74.9414 4.97656 75.3477 5.17969C75.7617 5.375 76.1328 5.64844 76.4609 6C76.7969 6.35156 77.0703 6.79297 77.2812 7.32422C77.5 7.84766 77.6094 8.48438 77.6094 9.23438V16.2422C77.6094 17.0156 77.5 17.6719 77.2812 18.2109C77.0703 18.75 76.7969 19.1992 76.4609 19.5586C76.1328 19.918 75.7617 20.2031 75.3477 20.4141C74.9414 20.6172 74.5469 20.7695 74.1641 20.8711C73.7812 20.9727 73.4336 21.0352 73.1211 21.0586C72.8086 21.082 72.5781 21.0938 72.4297 21.0938H72.0312C71.8828 21.0938 71.6523 21.082 71.3398 21.0586C71.0273 21.0352 70.6758 20.9727 70.2852 20.8711C69.9023 20.7695 69.5039 20.6172 69.0898 20.4141C68.6836 20.2031 68.3086 19.918 67.9648 19.5586C67.6289 19.1992 67.3516 18.75 67.1328 18.2109C66.9141 17.6719 66.8047 17.0156 66.8047 16.2422V9.23438ZM70.6953 16.6875C70.7109 16.9766 70.7773 17.2305 70.8945 17.4492C70.9961 17.6445 71.1484 17.8203 71.3516 17.9766C71.5625 18.1328 71.8594 18.2109 72.2422 18.2109C72.6172 18.2109 72.9062 18.1328 73.1094 17.9766C73.3125 17.8203 73.4648 17.6445 73.5664 17.4492C73.6758 17.2305 73.7422 16.9766 73.7656 16.6875V9.04688C73.7422 8.76562 73.6758 8.51172 73.5664 8.28516C73.4648 8.09766 73.3125 7.92578 73.1094 7.76953C72.9062 7.60547 72.6172 7.52344 72.2422 7.52344C71.8594 7.52344 71.5625 7.60547 71.3516 7.76953C71.1484 7.92578 70.9961 8.09766 70.8945 8.28516C70.7773 8.51172 70.7109 8.76562 70.6953 9.04688V16.6875ZM85.5547 4.59375C86.2656 4.59375 86.9258 4.68359 87.5352 4.86328C88.1523 5.04297 88.6875 5.3125 89.1406 5.67188C89.6016 6.02344 89.9609 6.46484 90.2188 6.99609C90.4844 7.52734 90.6172 8.14844 90.6172 8.85938V16.125C90.6172 16.7344 90.5508 17.2734 90.418 17.7422C90.2852 18.2031 90.1094 18.6055 89.8906 18.9492C89.6797 19.2852 89.4375 19.5742 89.1641 19.8164C88.8906 20.0508 88.6133 20.2422 88.332 20.3906C87.6602 20.75 86.8984 20.9531 86.0469 21H82.1562C81.7109 21 81.3672 20.9258 81.125 20.7773C80.8828 20.6211 80.707 20.418 80.5977 20.168C80.4883 19.9102 80.4219 19.6211 80.3984 19.3008C80.3828 18.9805 80.375 18.6484 80.375 18.3047V7.26562C80.375 6.92969 80.3828 6.60156 80.3984 6.28125C80.4219 5.96094 80.4883 5.67578 80.5977 5.42578C80.707 5.17578 80.8828 4.97656 81.125 4.82812C81.3672 4.67188 81.7109 4.59375 82.1562 4.59375H85.5547ZM83.9375 7.33594V18.2109H85.4609C85.7969 18.1953 86.0977 18.1172 86.3633 17.9766C86.4727 17.9219 86.582 17.8477 86.6914 17.7539C86.8008 17.6602 86.8984 17.5508 86.9844 17.4258C87.0703 17.293 87.1367 17.1367 87.1836 16.957C87.2383 16.7773 87.2656 16.5703 87.2656 16.3359V9.42188C87.2656 9.16406 87.2383 8.9375 87.1836 8.74219C87.1367 8.53906 87.0703 8.36328 86.9844 8.21484C86.8984 8.06641 86.8008 7.94141 86.6914 7.83984C86.582 7.73828 86.4727 7.65625 86.3633 7.59375C86.0977 7.44531 85.7969 7.35938 85.4609 7.33594H83.9375ZM93.2656 7.26562C93.2656 6.92969 93.2812 6.60156 93.3125 6.28125C93.3438 5.96094 93.418 5.67578 93.5352 5.42578C93.6523 5.17578 93.8281 4.97656 94.0625 4.82812C94.2969 4.67188 94.6172 4.59375 95.0234 4.59375C95.4375 4.59375 95.7656 4.67188 96.0078 4.82812C96.25 4.97656 96.4297 5.17578 96.5469 5.42578C96.6719 5.67578 96.75 5.96094 96.7812 6.28125C96.8125 6.60156 96.8281 6.92969 96.8281 7.26562V11.4844H98.1641C98.4219 10.8125 98.6797 10.1523 98.9375 9.50391C99.0469 9.23047 99.1602 8.94922 99.2773 8.66016C99.3945 8.36328 99.5078 8.07422 99.6172 7.79297C99.7344 7.51172 99.8438 7.24219 99.9453 6.98438C100.055 6.71875 100.156 6.48437 100.25 6.28125C100.344 6.0625 100.441 5.85156 100.543 5.64844C100.652 5.44531 100.777 5.26562 100.918 5.10938C101.059 4.95313 101.215 4.82812 101.387 4.73438C101.566 4.64062 101.773 4.59375 102.008 4.59375C102.234 4.59375 102.457 4.62891 102.676 4.69922C102.895 4.76953 103.09 4.875 103.262 5.01562C103.434 5.15625 103.57 5.32813 103.672 5.53125C103.781 5.73437 103.836 5.96875 103.836 6.23438C103.836 6.4375 103.801 6.67969 103.73 6.96094C103.668 7.23437 103.578 7.50781 103.461 7.78125L101.352 12.7734C101.758 12.9219 102.117 13.1641 102.43 13.5C102.562 13.6406 102.691 13.8125 102.816 14.0156C102.949 14.2109 103.066 14.4414 103.168 14.707C103.27 14.9727 103.352 15.2773 103.414 15.6211C103.477 15.957 103.508 16.3359 103.508 16.7578V18.4219C103.508 18.5078 103.539 18.5781 103.602 18.6328C103.664 18.6875 103.727 18.75 103.789 18.8203C103.945 19 104.035 19.1562 104.059 19.2891C104.082 19.4219 104.094 19.5312 104.094 19.6172C104.094 19.8984 104.039 20.1328 103.93 20.3203C103.828 20.5078 103.688 20.6602 103.508 20.7773C103.336 20.8945 103.133 20.9766 102.898 21.0234C102.672 21.0703 102.438 21.0938 102.195 21.0938C101.938 21.0938 101.676 21.0547 101.41 20.9766C101.145 20.8984 100.902 20.7812 100.684 20.625C100.465 20.4609 100.285 20.2578 100.145 20.0156C100.012 19.7734 99.9453 19.4922 99.9453 19.1719V16.7578C99.9453 16.4219 99.9219 16.1094 99.875 15.8203C99.8281 15.5234 99.7383 15.2695 99.6055 15.0586C99.4727 14.8398 99.2891 14.6719 99.0547 14.5547C98.8203 14.4297 98.5156 14.3672 98.1406 14.3672H96.8281V18.3047C96.8281 18.6484 96.8125 18.9805 96.7812 19.3008C96.75 19.6211 96.6719 19.9102 96.5469 20.168C96.4297 20.418 96.25 20.6211 96.0078 20.7773C95.7656 20.9258 95.4375 21 95.0234 21C94.6172 21 94.2969 20.9258 94.0625 20.7773C93.8281 20.6211 93.6523 20.418 93.5352 20.168C93.418 19.9102 93.3438 19.6211 93.3125 19.3008C93.2812 18.9805 93.2656 18.6484 93.2656 18.3047V7.26562ZM106.977 7.28906C106.977 6.95312 106.992 6.625 107.023 6.30469C107.062 5.98438 107.145 5.69922 107.27 5.44922C107.402 5.19141 107.598 4.98437 107.855 4.82812C108.113 4.67188 108.469 4.59375 108.922 4.59375C109.375 4.59375 109.73 4.67188 109.988 4.82812C110.246 4.98437 110.438 5.19141 110.562 5.44922C110.695 5.69922 110.777 5.98438 110.809 6.30469C110.848 6.625 110.867 6.95312 110.867 7.28906V18.3047C110.867 18.6484 110.852 18.9805 110.82 19.3008C110.789 19.6211 110.707 19.9102 110.574 20.168C110.449 20.418 110.254 20.6211 109.988 20.7773C109.73 20.9258 109.375 21 108.922 21C108.469 21 108.113 20.9258 107.855 20.7773C107.598 20.6211 107.402 20.418 107.27 20.168C107.145 19.9102 107.062 19.6211 107.023 19.3008C106.992 18.9805 106.977 18.6484 106.977 18.3047V7.28906Z" fill="#333333"/>
<path d="M3.51562 9.60547C3.30078 9.80078 3.06641 9.95378 2.8125 10.0645C2.55859 10.1751 2.25911 10.2305 1.91406 10.2305C1.71875 10.2305 1.53646 10.1947 1.36719 10.123C1.20443 10.0449 1.06445 9.94401 0.947266 9.82031C0.830078 9.6901 0.735677 9.54362 0.664062 9.38086C0.598958 9.2181 0.566406 9.04557 0.566406 8.86328C0.566406 8.68099 0.595703 8.52474 0.654297 8.39453C0.712891 8.25781 0.794271 8.14062 0.898438 8.04297C1.0026 7.94531 1.12305 7.85742 1.25977 7.7793C1.39648 7.70117 1.54297 7.61979 1.69922 7.53516C2.02474 7.32031 2.31445 7.10221 2.56836 6.88086C2.82878 6.65951 3.0599 6.45443 3.26172 6.26562C3.46354 6.07031 3.63932 5.9043 3.78906 5.76758C3.9388 5.63086 4.06901 5.53646 4.17969 5.48438C4.24479 5.45182 4.30339 5.42578 4.35547 5.40625C4.41406 5.38021 4.47266 5.36393 4.53125 5.35742C4.58984 5.3444 4.65495 5.33789 4.72656 5.33789C4.79818 5.33138 4.88932 5.32812 5 5.32812C5.33854 5.32812 5.60547 5.39648 5.80078 5.5332C6.0026 5.66992 6.15234 5.84896 6.25 6.07031C6.35417 6.28516 6.41927 6.5293 6.44531 6.80273C6.47135 7.07617 6.48438 7.35286 6.48438 7.63281V16.6953C6.48438 16.9818 6.47135 17.265 6.44531 17.5449C6.41927 17.8184 6.35417 18.0625 6.25 18.2773C6.15234 18.4922 6.0026 18.668 5.80078 18.8047C5.60547 18.9349 5.33854 19 5 19C4.65495 19 4.38477 18.9349 4.18945 18.8047C3.99414 18.668 3.8444 18.4922 3.74023 18.2773C3.64258 18.0625 3.58073 17.8184 3.55469 17.5449C3.52865 17.265 3.51562 16.9818 3.51562 16.6953V9.60547ZM11.1914 9.60547C10.9766 9.80078 10.7422 9.95378 10.4883 10.0645C10.2344 10.1751 9.9349 10.2305 9.58984 10.2305C9.39453 10.2305 9.21224 10.1947 9.04297 10.123C8.88021 10.0449 8.74023 9.94401 8.62305 9.82031C8.50586 9.6901 8.41146 9.54362 8.33984 9.38086C8.27474 9.2181 8.24219 9.04557 8.24219 8.86328C8.24219 8.68099 8.27148 8.52474 8.33008 8.39453C8.38867 8.25781 8.47005 8.14062 8.57422 8.04297C8.67839 7.94531 8.79883 7.85742 8.93555 7.7793C9.07227 7.70117 9.21875 7.61979 9.375 7.53516C9.70052 7.32031 9.99023 7.10221 10.2441 6.88086C10.5046 6.65951 10.7357 6.45443 10.9375 6.26562C11.1393 6.07031 11.3151 5.9043 11.4648 5.76758C11.6146 5.63086 11.7448 5.53646 11.8555 5.48438C11.9206 5.45182 11.9792 5.42578 12.0312 5.40625C12.0898 5.38021 12.1484 5.36393 12.207 5.35742C12.2656 5.3444 12.3307 5.33789 12.4023 5.33789C12.474 5.33138 12.5651 5.32812 12.6758 5.32812C13.0143 5.32812 13.2812 5.39648 13.4766 5.5332C13.6784 5.66992 13.8281 5.84896 13.9258 6.07031C14.0299 6.28516 14.0951 6.5293 14.1211 6.80273C14.1471 7.07617 14.1602 7.35286 14.1602 7.63281V16.6953C14.1602 16.9818 14.1471 17.265 14.1211 17.5449C14.0951 17.8184 14.0299 18.0625 13.9258 18.2773C13.8281 18.4922 13.6784 18.668 13.4766 18.8047C13.2812 18.9349 13.0143 19 12.6758 19C12.3307 19 12.0605 18.9349 11.8652 18.8047C11.6699 18.668 11.5202 18.4922 11.416 18.2773C11.3184 18.0625 11.2565 17.8184 11.2305 17.5449C11.2044 17.265 11.1914 16.9818 11.1914 16.6953V9.60547ZM20.7422 5.25C21.4779 5.25 22.1224 5.35091 22.6758 5.55273C23.2357 5.74805 23.7012 6.02474 24.0723 6.38281C24.4434 6.73438 24.7233 7.15755 24.9121 7.65234C25.1009 8.14062 25.1953 8.68099 25.1953 9.27344C25.1953 9.66406 25.14 10.0254 25.0293 10.3574C24.9251 10.6895 24.7852 10.9922 24.6094 11.2656C24.4401 11.5391 24.2448 11.7865 24.0234 12.0078C23.8021 12.2292 23.5775 12.4245 23.3496 12.5938C22.8027 12.9974 22.1875 13.3229 21.5039 13.5703C21.276 13.6615 21.0482 13.7721 20.8203 13.9023C20.599 14.026 20.4004 14.1725 20.2246 14.3418C20.0488 14.5046 19.9056 14.6966 19.7949 14.918C19.6842 15.1328 19.6289 15.3802 19.6289 15.6602V16.2656H23.0273C23.3008 16.2656 23.5742 16.2786 23.8477 16.3047C24.1211 16.3307 24.3685 16.3893 24.5898 16.4805C24.8112 16.5716 24.9902 16.7083 25.127 16.8906C25.2637 17.0664 25.332 17.3073 25.332 17.6133C25.332 17.9258 25.2637 18.1732 25.127 18.3555C24.9902 18.5378 24.8112 18.6777 24.5898 18.7754C24.3685 18.873 24.1211 18.9349 23.8477 18.9609C23.5742 18.987 23.3008 19 23.0273 19H18.1641C17.8385 19 17.5684 18.9479 17.3535 18.8438C17.1452 18.7331 16.9792 18.5964 16.8555 18.4336C16.7318 18.2643 16.6439 18.0788 16.5918 17.877C16.5462 17.6686 16.5234 17.4635 16.5234 17.2617V15.6992C16.5234 15.1979 16.6048 14.7292 16.7676 14.293C16.9368 13.8503 17.1712 13.4499 17.4707 13.0918C17.7767 12.7272 18.138 12.4017 18.5547 12.1152C18.9779 11.8288 19.4466 11.5846 19.9609 11.3828C20.4753 11.181 20.8854 10.9889 21.1914 10.8066C21.4974 10.6178 21.7318 10.4355 21.8945 10.2598C22.0638 10.0775 22.1745 9.89518 22.2266 9.71289C22.2786 9.5306 22.3047 9.34505 22.3047 9.15625C22.3047 8.81771 22.2461 8.55078 22.1289 8.35547C22.0182 8.16016 21.8783 8.01693 21.709 7.92578C21.5462 7.82812 21.3737 7.76953 21.1914 7.75C21.0156 7.72396 20.8659 7.71094 20.7422 7.71094C20.4167 7.71094 20.1562 7.75977 19.9609 7.85742C19.7656 7.94857 19.6159 8.06576 19.5117 8.20898C19.4141 8.35221 19.349 8.51172 19.3164 8.6875C19.2904 8.85677 19.2773 9.01953 19.2773 9.17578C19.2773 9.42969 19.2285 9.64779 19.1309 9.83008C19.0332 10.0059 18.9095 10.1491 18.7598 10.2598C18.6165 10.3704 18.457 10.4518 18.2812 10.5039C18.112 10.556 17.9557 10.582 17.8125 10.582C17.3698 10.582 17.0117 10.4616 16.7383 10.2207C16.4648 9.97331 16.3281 9.65755 16.3281 9.27344C16.3281 9.10417 16.3477 8.88607 16.3867 8.61914C16.4258 8.35221 16.5007 8.06901 16.6113 7.76953C16.722 7.47005 16.8783 7.17057 17.0801 6.87109C17.2819 6.57161 17.5456 6.30143 17.8711 6.06055C18.1966 5.81966 18.5938 5.62435 19.0625 5.47461C19.5312 5.32487 20.0911 5.25 20.7422 5.25Z" fill="#4A89F3"/>
<line x1="3" y1="20.5" x2="25" y2="20.5" stroke="#4A89F3"/>
</svg>
