<svg width="80" height="26" viewBox="0 0 80 26" fill="none" xmlns="http://www.w3.org/2000/svg">
<path d="M11.5 3.91667C16.7842 3.91667 21.0833 8.21575 21.0833 13.5C21.0833 18.7842 16.7842 23.0833 11.5 23.0833C6.21575 23.0833 1.91667 18.7842 1.91667 13.5C1.91667 8.21575 6.21575 3.91667 11.5 3.91667ZM11.5 2C5.14913 2 0 7.14913 0 13.5C0 19.8509 5.14913 25 11.5 25C17.8509 25 23 19.8509 23 13.5C23 7.14913 17.8509 2 11.5 2ZM9.55171 17.3429C10.0922 15.6285 11.1157 13.5747 11.2968 13.0553C11.5585 12.3011 11.0946 11.9667 9.62933 13.2556L9.3035 12.6423C10.9748 10.8243 14.4162 10.4132 13.2451 13.2298C12.5139 14.9883 11.9907 16.1757 11.6917 17.0918C11.2556 18.4268 12.3567 17.8853 13.4349 16.8896C13.5815 17.1292 13.6294 17.2068 13.776 17.4828C11.3821 19.7617 8.72467 19.963 9.55171 17.3429V17.3429ZM14.0961 9.51429C13.5863 9.94842 12.8311 9.93883 12.4085 9.49321C11.9859 9.04758 12.0568 8.33554 12.5657 7.90142C13.0755 7.46729 13.8307 7.47783 14.2533 7.9225C14.674 8.36908 14.605 9.08112 14.0961 9.51429Z" fill="#B5B5B5"/>
<path d="M28.2852 4.89355C28.1455 5.02051 27.9932 5.11995 27.8281 5.19189C27.6631 5.26383 27.4684 5.2998 27.2441 5.2998C27.1172 5.2998 26.9987 5.27653 26.8887 5.22998C26.7829 5.1792 26.6919 5.11361 26.6157 5.0332C26.5396 4.94857 26.4782 4.85335 26.4316 4.74756C26.3893 4.64176 26.3682 4.52962 26.3682 4.41113C26.3682 4.29264 26.3872 4.19108 26.4253 4.10645C26.4634 4.01758 26.5163 3.94141 26.584 3.87793C26.6517 3.81445 26.73 3.75732 26.8188 3.70654C26.9077 3.65576 27.0029 3.60286 27.1045 3.54785C27.3161 3.4082 27.5044 3.26644 27.6694 3.12256C27.8387 2.97868 27.9889 2.84538 28.1201 2.72266C28.2513 2.5957 28.3656 2.48779 28.4629 2.39893C28.5602 2.31006 28.6449 2.2487 28.7168 2.21484C28.7591 2.19368 28.7972 2.17676 28.8311 2.16406C28.8691 2.14714 28.9072 2.13656 28.9453 2.13232C28.9834 2.12386 29.0257 2.11963 29.0723 2.11963C29.1188 2.1154 29.1781 2.11328 29.25 2.11328C29.4701 2.11328 29.6436 2.15771 29.7705 2.24658C29.9017 2.33545 29.999 2.45182 30.0625 2.5957C30.1302 2.73535 30.1725 2.89404 30.1895 3.07178C30.2064 3.24951 30.2148 3.42936 30.2148 3.61133V9.50195C30.2148 9.68815 30.2064 9.87223 30.1895 10.0542C30.1725 10.2319 30.1302 10.3906 30.0625 10.5303C29.999 10.6699 29.9017 10.7842 29.7705 10.873C29.6436 10.9577 29.4701 11 29.25 11C29.0257 11 28.8501 10.9577 28.7231 10.873C28.5962 10.7842 28.4989 10.6699 28.4312 10.5303C28.3677 10.3906 28.3275 10.2319 28.3105 10.0542C28.2936 9.87223 28.2852 9.68815 28.2852 9.50195V4.89355ZM33.2744 4.89355C33.1348 5.02051 32.9824 5.11995 32.8174 5.19189C32.6523 5.26383 32.4577 5.2998 32.2334 5.2998C32.1064 5.2998 31.988 5.27653 31.8779 5.22998C31.7721 5.1792 31.6812 5.11361 31.605 5.0332C31.5288 4.94857 31.4674 4.85335 31.4209 4.74756C31.3786 4.64176 31.3574 4.52962 31.3574 4.41113C31.3574 4.29264 31.3765 4.19108 31.4146 4.10645C31.4526 4.01758 31.5055 3.94141 31.5732 3.87793C31.641 3.81445 31.7192 3.75732 31.8081 3.70654C31.897 3.65576 31.9922 3.60286 32.0938 3.54785C32.3053 3.4082 32.4937 3.26644 32.6587 3.12256C32.828 2.97868 32.9782 2.84538 33.1094 2.72266C33.2406 2.5957 33.3548 2.48779 33.4521 2.39893C33.5495 2.31006 33.6341 2.2487 33.7061 2.21484C33.7484 2.19368 33.7865 2.17676 33.8203 2.16406C33.8584 2.14714 33.8965 2.13656 33.9346 2.13232C33.9727 2.12386 34.015 2.11963 34.0615 2.11963C34.1081 2.1154 34.1673 2.11328 34.2393 2.11328C34.4593 2.11328 34.6328 2.15771 34.7598 2.24658C34.891 2.33545 34.9883 2.45182 35.0518 2.5957C35.1195 2.73535 35.1618 2.89404 35.1787 3.07178C35.1956 3.24951 35.2041 3.42936 35.2041 3.61133V9.50195C35.2041 9.68815 35.1956 9.87223 35.1787 10.0542C35.1618 10.2319 35.1195 10.3906 35.0518 10.5303C34.9883 10.6699 34.891 10.7842 34.7598 10.873C34.6328 10.9577 34.4593 11 34.2393 11C34.015 11 33.8394 10.9577 33.7124 10.873C33.5854 10.7842 33.4881 10.6699 33.4204 10.5303C33.3569 10.3906 33.3167 10.2319 33.2998 10.0542C33.2829 9.87223 33.2744 9.68815 33.2744 9.50195V4.89355ZM39.4824 2.0625C39.9606 2.0625 40.3796 2.12809 40.7393 2.25928C41.1032 2.38623 41.4058 2.56608 41.647 2.79883C41.8882 3.02734 42.0701 3.30241 42.1929 3.62402C42.3156 3.94141 42.377 4.29264 42.377 4.67773C42.377 4.93164 42.341 5.1665 42.269 5.38232C42.2013 5.59814 42.1104 5.79492 41.9961 5.97266C41.8861 6.15039 41.7591 6.3112 41.6152 6.45508C41.4714 6.59896 41.3254 6.72591 41.1772 6.83594C40.8218 7.09831 40.4219 7.3099 39.9775 7.4707C39.8294 7.52995 39.6813 7.60189 39.5332 7.68652C39.3893 7.76693 39.2603 7.86214 39.146 7.97217C39.0317 8.07796 38.9386 8.2028 38.8667 8.34668C38.7948 8.48633 38.7588 8.64714 38.7588 8.8291V9.22266H40.9678C41.1455 9.22266 41.3232 9.23112 41.501 9.24805C41.6787 9.26497 41.8395 9.30306 41.9834 9.3623C42.1273 9.42155 42.2437 9.51042 42.3325 9.62891C42.4214 9.74316 42.4658 9.89974 42.4658 10.0986C42.4658 10.3018 42.4214 10.4626 42.3325 10.5811C42.2437 10.6995 42.1273 10.7905 41.9834 10.854C41.8395 10.9175 41.6787 10.9577 41.501 10.9746C41.3232 10.9915 41.1455 11 40.9678 11H37.8066C37.5951 11 37.4194 10.9661 37.2798 10.8984C37.1444 10.8265 37.0365 10.7376 36.9561 10.6318C36.8757 10.5218 36.8185 10.4012 36.7847 10.27C36.755 10.1346 36.7402 10.0013 36.7402 9.87012V8.85449C36.7402 8.52865 36.7931 8.22396 36.8989 7.94043C37.009 7.65267 37.1613 7.39242 37.356 7.15967C37.5549 6.92269 37.7897 6.7111 38.0605 6.5249C38.3356 6.3387 38.6403 6.18001 38.9746 6.04883C39.3089 5.91764 39.5755 5.79281 39.7744 5.67432C39.9733 5.5516 40.1257 5.43311 40.2314 5.31885C40.3415 5.20036 40.4134 5.08187 40.4473 4.96338C40.4811 4.84489 40.498 4.72428 40.498 4.60156C40.498 4.38151 40.46 4.20801 40.3838 4.08105C40.3118 3.9541 40.2209 3.861 40.1108 3.80176C40.005 3.73828 39.8929 3.7002 39.7744 3.6875C39.6602 3.67057 39.5628 3.66211 39.4824 3.66211C39.2708 3.66211 39.1016 3.69385 38.9746 3.75732C38.8477 3.81657 38.7503 3.89274 38.6826 3.98584C38.6191 4.07894 38.5768 4.18262 38.5557 4.29688C38.5387 4.4069 38.5303 4.5127 38.5303 4.61426C38.5303 4.7793 38.4985 4.92106 38.4351 5.03955C38.3716 5.15381 38.2912 5.24691 38.1938 5.31885C38.1007 5.39079 37.9971 5.44368 37.8828 5.47754C37.7728 5.51139 37.6712 5.52832 37.5781 5.52832C37.2904 5.52832 37.0576 5.45003 36.8799 5.29346C36.7021 5.13265 36.6133 4.92741 36.6133 4.67773C36.6133 4.56771 36.626 4.42594 36.6514 4.25244C36.6768 4.07894 36.7254 3.89486 36.7974 3.7002C36.8693 3.50553 36.9709 3.31087 37.1021 3.11621C37.2332 2.92155 37.4046 2.74593 37.6162 2.58936C37.8278 2.43278 38.0859 2.30583 38.3906 2.2085C38.6953 2.11117 39.0592 2.0625 39.4824 2.0625ZM29.6562 12.1133C30.0413 12.1133 30.3989 12.1619 30.729 12.2593C31.0633 12.3566 31.3532 12.5026 31.5986 12.6973C31.8483 12.8877 32.043 13.1268 32.1826 13.4146C32.3265 13.7023 32.3984 14.0387 32.3984 14.4238V18.3594C32.3984 18.6895 32.3625 18.9814 32.2905 19.2354C32.2186 19.485 32.1234 19.703 32.0049 19.8892C31.8906 20.0711 31.7594 20.2277 31.6113 20.3589C31.4632 20.4858 31.313 20.5895 31.1606 20.6699C30.7967 20.8646 30.3841 20.9746 29.9229 21H27.8154C27.5742 21 27.388 20.9598 27.2568 20.8794C27.1257 20.7948 27.0304 20.6847 26.9712 20.5493C26.9119 20.4097 26.876 20.2531 26.8633 20.0796C26.8548 19.9061 26.8506 19.7262 26.8506 19.54V13.5605C26.8506 13.3786 26.8548 13.2008 26.8633 13.0273C26.876 12.8538 26.9119 12.6994 26.9712 12.564C27.0304 12.4285 27.1257 12.3206 27.2568 12.2402C27.388 12.1556 27.5742 12.1133 27.8154 12.1133H29.6562ZM28.7803 13.5986V19.4893H29.6055C29.7874 19.4808 29.9504 19.4385 30.0942 19.3623C30.1535 19.3327 30.2127 19.2925 30.272 19.2417C30.3312 19.1909 30.3841 19.1317 30.4307 19.064C30.4772 18.992 30.5132 18.9074 30.5386 18.8101C30.5682 18.7127 30.583 18.6006 30.583 18.4736V14.7285C30.583 14.5889 30.5682 14.4661 30.5386 14.3604C30.5132 14.2503 30.4772 14.1551 30.4307 14.0747C30.3841 13.9943 30.3312 13.9266 30.272 13.8716C30.2127 13.8166 30.1535 13.7721 30.0942 13.7383C29.9504 13.6579 29.7874 13.6113 29.6055 13.5986H28.7803ZM33.4395 17.0391C33.4395 16.6497 33.4924 16.3197 33.5981 16.0488C33.7039 15.778 33.8394 15.5516 34.0044 15.3696C34.1737 15.1877 34.3599 15.0459 34.563 14.9443C34.7703 14.8428 34.9735 14.7666 35.1724 14.7158C35.3713 14.665 35.5553 14.6333 35.7246 14.6206C35.8981 14.6079 36.0335 14.6016 36.1309 14.6016C36.2282 14.6016 36.3615 14.6079 36.5308 14.6206C36.7 14.6333 36.8799 14.665 37.0703 14.7158C37.265 14.7666 37.4596 14.8428 37.6543 14.9443C37.8532 15.0459 38.0309 15.1877 38.1875 15.3696C38.3483 15.5516 38.4795 15.778 38.5811 16.0488C38.6826 16.3197 38.7334 16.6497 38.7334 17.0391V18.6133C38.7334 19.0026 38.6826 19.3327 38.5811 19.6035C38.4795 19.8743 38.3483 20.1007 38.1875 20.2827C38.0309 20.4647 37.8532 20.6064 37.6543 20.708C37.4596 20.8096 37.265 20.8857 37.0703 20.9365C36.8799 20.9873 36.7 21.019 36.5308 21.0317C36.3615 21.0444 36.2282 21.0508 36.1309 21.0508C36.0335 21.0508 35.8981 21.0444 35.7246 21.0317C35.5553 21.019 35.3713 20.9873 35.1724 20.9365C34.9735 20.8857 34.7703 20.8096 34.563 20.708C34.3599 20.6064 34.1737 20.4647 34.0044 20.2827C33.8394 20.1007 33.7039 19.8743 33.5981 19.6035C33.4924 19.3327 33.4395 19.0026 33.4395 18.6133V17.0391ZM35.3945 19.0576C35.3988 19.1803 35.4284 19.2882 35.4834 19.3813C35.5299 19.466 35.6019 19.5422 35.6992 19.6099C35.8008 19.6733 35.9447 19.7051 36.1309 19.7051C36.3086 19.7051 36.444 19.6733 36.5371 19.6099C36.6344 19.5422 36.7064 19.466 36.7529 19.3813C36.8037 19.2882 36.8333 19.1803 36.8418 19.0576V16.7598C36.8333 16.6328 36.8037 16.5164 36.7529 16.4106C36.7064 16.326 36.6344 16.2477 36.5371 16.1758C36.444 16.0996 36.3086 16.0615 36.1309 16.0615C35.9447 16.0615 35.8008 16.0996 35.6992 16.1758C35.6019 16.2477 35.5299 16.326 35.4834 16.4106C35.4284 16.5164 35.3988 16.6328 35.3945 16.7598V19.0576ZM45.0811 21.1904C45.0811 21.5713 45.0282 21.8929 44.9224 22.1553C44.8208 22.4176 44.6896 22.6356 44.5288 22.8091C44.368 22.9826 44.1882 23.118 43.9893 23.2153C43.7946 23.3127 43.6021 23.3846 43.4116 23.4312C43.2254 23.4819 43.054 23.5116 42.8975 23.52C42.7409 23.5327 42.6224 23.5391 42.542 23.5391C42.2415 23.5391 41.9411 23.5179 41.6406 23.4756C41.3402 23.4333 41.0651 23.355 40.8154 23.2407C40.57 23.1265 40.3647 22.972 40.1997 22.7773C40.0389 22.5827 39.9479 22.333 39.9268 22.0283C39.9268 21.9775 39.9352 21.9204 39.9521 21.8569C39.9691 21.7935 40.0072 21.7321 40.0664 21.6729C40.1257 21.6178 40.2145 21.5692 40.333 21.5269C40.4515 21.4888 40.6123 21.4697 40.8154 21.4697C41.0609 21.4697 41.2492 21.4888 41.3804 21.5269C41.5116 21.5692 41.6089 21.6178 41.6724 21.6729C41.7358 21.7321 41.776 21.7935 41.793 21.8569C41.8141 21.9246 41.8353 21.986 41.8564 22.041C41.8903 22.1299 41.9559 22.1912 42.0532 22.2251C42.1548 22.2632 42.2923 22.2822 42.4658 22.2822C42.6224 22.2822 42.7451 22.2463 42.834 22.1743C42.9271 22.1024 42.9969 22.0156 43.0435 21.9141C43.09 21.8167 43.1196 21.7152 43.1323 21.6094C43.145 21.5078 43.1514 21.4232 43.1514 21.3555V19.9336C43.1133 20.0605 43.0583 20.1875 42.9863 20.3145C42.9186 20.4414 42.8298 20.5557 42.7197 20.6572C42.6097 20.7588 42.4764 20.8413 42.3198 20.9048C42.1675 20.9683 41.9876 21 41.7803 21C41.5475 21 41.3148 20.9619 41.082 20.8857C40.8493 20.8096 40.6377 20.6847 40.4473 20.5112C40.2611 20.3335 40.1087 20.1007 39.9902 19.813C39.8717 19.5252 39.8125 19.1676 39.8125 18.7402V16.8994C39.8125 16.4805 39.8717 16.1292 39.9902 15.8457C40.1087 15.5579 40.2611 15.3252 40.4473 15.1475C40.6377 14.9697 40.8493 14.8428 41.082 14.7666C41.3148 14.6904 41.5475 14.6523 41.7803 14.6523C41.9876 14.6523 42.1675 14.6862 42.3198 14.7539C42.4764 14.8174 42.6097 14.8999 42.7197 15.0015C42.8298 15.103 42.9186 15.2173 42.9863 15.3442C43.0583 15.4712 43.1133 15.596 43.1514 15.7188C43.1514 15.6341 43.1577 15.5304 43.1704 15.4077C43.1873 15.285 43.2275 15.1686 43.291 15.0586C43.3545 14.9443 43.4518 14.8491 43.583 14.7729C43.7142 14.6925 43.8962 14.6523 44.1289 14.6523C44.3574 14.6523 44.5352 14.6947 44.6621 14.7793C44.7891 14.8597 44.8843 14.9676 44.9478 15.103C45.0112 15.2384 45.0493 15.3929 45.062 15.5664C45.0747 15.7357 45.0811 15.9092 45.0811 16.0869V21.1904ZM41.7803 18.6006C41.7803 18.7106 41.7845 18.8206 41.793 18.9307C41.8014 19.0407 41.8247 19.1401 41.8628 19.229C41.9009 19.3136 41.9559 19.3835 42.0278 19.4385C42.104 19.4893 42.2077 19.5146 42.3389 19.5146C42.5039 19.5146 42.6393 19.4618 42.7451 19.356C42.8509 19.2502 42.9334 19.1211 42.9927 18.9688C43.0519 18.8122 43.0921 18.6493 43.1133 18.48C43.1387 18.3065 43.1514 18.152 43.1514 18.0166C43.1471 17.695 43.1323 17.4157 43.1069 17.1787C43.0858 16.9417 43.0456 16.7471 42.9863 16.5947C42.9271 16.4382 42.8446 16.3239 42.7388 16.252C42.6372 16.1758 42.5039 16.1377 42.3389 16.1377C42.2077 16.1377 42.104 16.1652 42.0278 16.2202C41.9559 16.271 41.9009 16.3408 41.8628 16.4297C41.8247 16.5186 41.8014 16.618 41.793 16.728C41.7845 16.8381 41.7803 16.9502 41.7803 17.0645V18.6006ZM46.3379 17.0391C46.3379 16.6497 46.3908 16.3197 46.4966 16.0488C46.6024 15.778 46.7378 15.5516 46.9028 15.3696C47.0721 15.1877 47.2583 15.0459 47.4614 14.9443C47.6688 14.8428 47.8719 14.7666 48.0708 14.7158C48.2697 14.665 48.4538 14.6333 48.623 14.6206C48.7965 14.6079 48.932 14.6016 49.0293 14.6016C49.1266 14.6016 49.2599 14.6079 49.4292 14.6206C49.5985 14.6333 49.7783 14.665 49.9688 14.7158C50.1634 14.7666 50.3581 14.8428 50.5527 14.9443C50.7516 15.0459 50.9294 15.1877 51.0859 15.3696C51.2467 15.5516 51.3779 15.778 51.4795 16.0488C51.5811 16.3197 51.6318 16.6497 51.6318 17.0391V18.6133C51.6318 19.0026 51.5811 19.3327 51.4795 19.6035C51.3779 19.8743 51.2467 20.1007 51.0859 20.2827C50.9294 20.4647 50.7516 20.6064 50.5527 20.708C50.3581 20.8096 50.1634 20.8857 49.9688 20.9365C49.7783 20.9873 49.5985 21.019 49.4292 21.0317C49.2599 21.0444 49.1266 21.0508 49.0293 21.0508C48.932 21.0508 48.7965 21.0444 48.623 21.0317C48.4538 21.019 48.2697 20.9873 48.0708 20.9365C47.8719 20.8857 47.6688 20.8096 47.4614 20.708C47.2583 20.6064 47.0721 20.4647 46.9028 20.2827C46.7378 20.1007 46.6024 19.8743 46.4966 19.6035C46.3908 19.3327 46.3379 19.0026 46.3379 18.6133V17.0391ZM48.293 19.0576C48.2972 19.1803 48.3268 19.2882 48.3818 19.3813C48.4284 19.466 48.5003 19.5422 48.5977 19.6099C48.6992 19.6733 48.8431 19.7051 49.0293 19.7051C49.207 19.7051 49.3424 19.6733 49.4355 19.6099C49.5329 19.5422 49.6048 19.466 49.6514 19.3813C49.7021 19.2882 49.7318 19.1803 49.7402 19.0576V16.7598C49.7318 16.6328 49.7021 16.5164 49.6514 16.4106C49.6048 16.326 49.5329 16.2477 49.4355 16.1758C49.3424 16.0996 49.207 16.0615 49.0293 16.0615C48.8431 16.0615 48.6992 16.0996 48.5977 16.1758C48.5003 16.2477 48.4284 16.326 48.3818 16.4106C48.3268 16.5164 48.2972 16.6328 48.293 16.7598V19.0576ZM57.9033 19.5654C57.9033 19.7432 57.897 19.9188 57.8843 20.0923C57.8716 20.2616 57.8335 20.4139 57.77 20.5493C57.7065 20.6847 57.6113 20.7948 57.4844 20.8794C57.3574 20.9598 57.1797 21 56.9512 21C56.7184 21 56.5365 20.9619 56.4053 20.8857C56.2741 20.8053 56.1768 20.7101 56.1133 20.6001C56.0498 20.4858 56.0096 20.3674 55.9927 20.2446C55.98 20.1219 55.9736 20.0182 55.9736 19.9336C55.9355 20.0563 55.8805 20.1812 55.8086 20.3081C55.7409 20.4351 55.652 20.5493 55.542 20.6509C55.432 20.7524 55.2987 20.8371 55.1421 20.9048C54.9897 20.9683 54.8099 21 54.6025 21C54.3698 21 54.137 20.9619 53.9043 20.8857C53.6715 20.8096 53.4621 20.6826 53.2759 20.5049C53.0897 20.3271 52.9373 20.0965 52.8188 19.813C52.7046 19.5252 52.6475 19.1719 52.6475 18.7529V16.9121C52.6475 16.4889 52.7046 16.1356 52.8188 15.8521C52.9373 15.5643 53.0897 15.3337 53.2759 15.1602C53.4621 14.9824 53.6715 14.8555 53.9043 14.7793C54.137 14.7031 54.3698 14.665 54.6025 14.665C54.8099 14.665 54.9897 14.6968 55.1421 14.7603C55.2987 14.8237 55.432 14.9062 55.542 15.0078C55.652 15.1094 55.7409 15.2236 55.8086 15.3506C55.8805 15.4775 55.9355 15.6045 55.9736 15.7314V13.5605C55.9736 13.3786 55.9821 13.2008 55.999 13.0273C56.0202 12.8496 56.0625 12.6951 56.126 12.564C56.1937 12.4285 56.291 12.3206 56.418 12.2402C56.5492 12.1556 56.7269 12.1133 56.9512 12.1133C57.1628 12.1133 57.332 12.1556 57.459 12.2402C57.5859 12.3206 57.6812 12.4285 57.7446 12.564C57.8123 12.6951 57.8547 12.8496 57.8716 13.0273C57.8927 13.2008 57.9033 13.3786 57.9033 13.5605V19.5654ZM54.6025 18.5879C54.6025 18.7021 54.6068 18.8143 54.6152 18.9243C54.6237 19.0343 54.647 19.1338 54.6851 19.2227C54.7231 19.3115 54.7782 19.3835 54.8501 19.4385C54.9263 19.4893 55.0299 19.5146 55.1611 19.5146C55.3262 19.5146 55.4595 19.4787 55.561 19.4067C55.6668 19.3306 55.7493 19.2163 55.8086 19.064C55.8678 18.9074 55.908 18.7127 55.9292 18.48C55.9546 18.243 55.9694 17.9616 55.9736 17.6357C55.9736 17.5046 55.9609 17.3543 55.9355 17.1851C55.9144 17.0116 55.8742 16.8486 55.8149 16.6963C55.7557 16.5439 55.6732 16.4149 55.5674 16.3091C55.4616 16.2033 55.3262 16.1504 55.1611 16.1504C55.0299 16.1504 54.9263 16.1779 54.8501 16.2329C54.7782 16.2837 54.7231 16.3514 54.6851 16.436C54.647 16.5207 54.6237 16.618 54.6152 16.728C54.6068 16.8338 54.6025 16.9417 54.6025 17.0518V18.5879ZM59.5537 13.5225C59.5537 13.3447 59.5601 13.1712 59.5728 13.002C59.5854 12.8327 59.6214 12.6825 59.6807 12.5513C59.7399 12.4201 59.8288 12.3143 59.9473 12.2339C60.07 12.1535 60.2393 12.1133 60.4551 12.1133C60.6751 12.1133 60.8444 12.1535 60.9629 12.2339C61.0856 12.3143 61.1745 12.4201 61.2295 12.5513C61.2887 12.6825 61.3247 12.8327 61.3374 13.002C61.3501 13.1712 61.3564 13.3447 61.3564 13.5225V16.0234H61.458L62.7656 14.4873C62.8418 14.3984 62.9307 14.335 63.0322 14.2969C63.1338 14.2546 63.2396 14.2334 63.3496 14.2334C63.4554 14.2334 63.5612 14.2546 63.667 14.2969C63.777 14.335 63.8722 14.3921 63.9526 14.4683C64.0373 14.5402 64.105 14.6291 64.1558 14.7349C64.2108 14.8364 64.2383 14.9528 64.2383 15.084C64.2383 15.2533 64.179 15.4098 64.0605 15.5537L62.918 16.8994L64.1621 19.2734C64.2383 19.4258 64.3039 19.5802 64.3589 19.7368C64.4139 19.8892 64.4414 20.0352 64.4414 20.1748C64.4414 20.3102 64.4118 20.4308 64.3525 20.5366C64.2933 20.6424 64.215 20.7313 64.1177 20.8032C64.0246 20.8709 63.9188 20.9238 63.8003 20.9619C63.686 20.9958 63.5739 21.0127 63.4639 21.0127C63.3242 21.0127 63.1994 20.9788 63.0894 20.9111C62.9793 20.8434 62.882 20.7609 62.7974 20.6636C62.717 20.562 62.645 20.4541 62.5815 20.3398C62.5181 20.2256 62.4652 20.1198 62.4229 20.0225L61.7119 18.5117H61.3564V19.5781C61.3564 19.7559 61.3501 19.9315 61.3374 20.105C61.3247 20.2743 61.2887 20.4266 61.2295 20.562C61.1745 20.6932 61.0856 20.799 60.9629 20.8794C60.8444 20.9598 60.6751 21 60.4551 21C60.2393 21 60.07 20.9598 59.9473 20.8794C59.8288 20.799 59.7399 20.6932 59.6807 20.562C59.6214 20.4266 59.5854 20.2743 59.5728 20.105C59.5601 19.9315 59.5537 19.7559 59.5537 19.5781V13.5225ZM66.0156 16.0742C66.0156 15.8965 66.0241 15.723 66.041 15.5537C66.0622 15.3844 66.1066 15.2342 66.1743 15.103C66.242 14.9676 66.3394 14.8597 66.4663 14.7793C66.5933 14.6947 66.7646 14.6523 66.9805 14.6523C67.1963 14.6523 67.3677 14.6947 67.4946 14.7793C67.6216 14.8597 67.7189 14.9676 67.7866 15.103C67.8543 15.2342 67.8966 15.3844 67.9136 15.5537C67.9347 15.723 67.9453 15.8965 67.9453 16.0742V19.5781C67.9453 19.7559 67.9347 19.9315 67.9136 20.105C67.8966 20.2743 67.8543 20.4266 67.7866 20.562C67.7189 20.6932 67.6216 20.799 67.4946 20.8794C67.3677 20.9598 67.1963 21 66.9805 21C66.7646 21 66.5933 20.9598 66.4663 20.8794C66.3394 20.799 66.242 20.6932 66.1743 20.562C66.1066 20.4266 66.0622 20.2743 66.041 20.105C66.0241 19.9315 66.0156 19.7559 66.0156 19.5781V16.0742ZM67.958 13.0781C67.958 13.404 67.8734 13.6473 67.7041 13.8081C67.5348 13.9647 67.2979 14.043 66.9932 14.043C66.6885 14.043 66.4515 13.9647 66.2822 13.8081C66.113 13.6473 66.0283 13.404 66.0283 13.0781C66.0283 12.7396 66.113 12.4941 66.2822 12.3418C66.4515 12.1895 66.6885 12.1133 66.9932 12.1133C67.319 12.1133 67.5602 12.1895 67.7168 12.3418C67.8776 12.4941 67.958 12.7396 67.958 13.0781Z" fill="#B5B5B5"/>
<line x1="12.0061" y1="24" x2="68.0051" y2="24.3444" stroke="#B5B5B5" stroke-width="2"/>
<line x1="67" y1="20" x2="67" y2="25" stroke="#B5B5B5" stroke-width="2"/>
</svg>
